<?xml version="1.0" encoding="utf-8"?>
<!-- Generator: Adobe Illustrator 21.0.2, SVG Export Plug-In . SVG Version: 6.00 Build 0)  -->
<svg version="1.1" id="Layer_1" xmlns="http://www.w3.org/2000/svg" xmlns:xlink="http://www.w3.org/1999/xlink" x="0px" y="0px"
	 viewBox="0 0 165 50" style="enable-background:new 0 0 165 50;" xml:space="preserve">
<style type="text/css">
	.st0{fill:#FFFFFF;}
	.st1{fill:#00C0FF;}
	.st2{fill:#222222;}
</style>
<g>
	<g>
		<path class="st0" d="M52.6,27.9V3.1h11.3c1.2,0,2.3,0.2,3.2,0.7c1,0.5,1.8,1.1,2.5,1.8c0.7,0.8,1.3,1.6,1.7,2.6
			c0.4,1,0.6,1.9,0.6,2.9c0,0.8-0.1,1.6-0.4,2.4c-0.2,0.8-0.6,1.5-1,2.1c-0.4,0.7-1,1.2-1.6,1.7c-0.6,0.5-1.3,0.8-2.1,1.1l6.1,9.4
			h-4.7l-5.6-8.6h-6v8.6H52.6z M56.7,15.8h7.2c0.6,0,1.1-0.1,1.6-0.4s0.9-0.6,1.2-1c0.3-0.4,0.6-0.9,0.8-1.5
			c0.2-0.6,0.3-1.2,0.3-1.8c0-0.6-0.1-1.2-0.3-1.8c-0.2-0.6-0.5-1-0.9-1.5c-0.4-0.4-0.8-0.8-1.3-1c-0.5-0.2-1-0.4-1.6-0.4h-7V15.8z"
			/>
		<path class="st0" d="M94.6,24.4v3.5H76.8V3.1h17.5v3.5H80.9v7h11.6v3.2H80.9v7.6H94.6z"/>
		<path class="st0" d="M100.5,3.1l7.8,19.9l7.8-19.9h4.4l-10.4,24.8h-3.5L96.2,3.1H100.5z"/>
		<path class="st0" d="M141.6,24.4v3.5h-17.8V3.1h17.5v3.5h-13.4v7h11.6v3.2h-11.6v7.6H141.6z"/>
		<path class="st0" d="M145.8,27.9V3.1h4.1v21.3h14v3.5H145.8z"/>
	</g>
	<g>
		<path class="st0" d="M53.7,46.8V36.5h4.5c0.5,0,0.9,0.1,1.3,0.3c0.4,0.2,0.7,0.4,1,0.8c0.3,0.3,0.5,0.7,0.7,1.1
			c0.2,0.4,0.2,0.8,0.2,1.2c0,0.3,0,0.7-0.1,1c-0.1,0.3-0.2,0.6-0.4,0.9c-0.2,0.3-0.4,0.5-0.6,0.7s-0.5,0.3-0.8,0.4l2.4,3.9h-1.8
			l-2.2-3.6h-2.4v3.6H53.7z M55.3,41.8h2.9c0.2,0,0.4-0.1,0.6-0.2c0.2-0.1,0.4-0.2,0.5-0.4c0.1-0.2,0.2-0.4,0.3-0.6
			c0.1-0.2,0.1-0.5,0.1-0.7c0-0.3,0-0.5-0.1-0.7c-0.1-0.2-0.2-0.4-0.4-0.6c-0.2-0.2-0.3-0.3-0.5-0.4C58.5,38,58.3,38,58.1,38h-2.8
			V41.8z"/>
		<path class="st0" d="M67.4,47c-0.6,0-1.1-0.1-1.6-0.3c-0.5-0.2-0.9-0.5-1.2-0.9c-0.3-0.4-0.6-0.8-0.8-1.2c-0.2-0.5-0.3-1-0.3-1.5
			c0-0.5,0.1-1,0.3-1.5c0.2-0.5,0.5-0.9,0.8-1.3c0.3-0.4,0.8-0.6,1.2-0.9c0.5-0.2,1-0.3,1.6-0.3c0.6,0,1.1,0.1,1.6,0.3
			c0.5,0.2,0.9,0.5,1.2,0.9c0.3,0.4,0.6,0.8,0.8,1.2s0.3,1,0.3,1.5c0,0.1,0,0.2,0,0.3c0,0.1,0,0.2,0,0.3h-6.1c0,0.3,0.1,0.6,0.2,0.9
			s0.3,0.5,0.5,0.7c0.2,0.2,0.4,0.4,0.7,0.5c0.3,0.1,0.5,0.2,0.8,0.2c0.2,0,0.4,0,0.6-0.1c0.2-0.1,0.4-0.1,0.6-0.2
			c0.2-0.1,0.3-0.2,0.5-0.4c0.1-0.1,0.2-0.3,0.3-0.5l1.4,0.4c-0.3,0.6-0.7,1-1.3,1.4C68.9,46.8,68.2,47,67.4,47z M69.7,42.5
			c0-0.3-0.1-0.6-0.2-0.9c-0.1-0.3-0.3-0.5-0.5-0.7c-0.2-0.2-0.4-0.3-0.7-0.4c-0.3-0.1-0.6-0.2-0.9-0.2c-0.3,0-0.6,0.1-0.9,0.2
			c-0.3,0.1-0.5,0.3-0.7,0.4c-0.2,0.2-0.4,0.4-0.5,0.7s-0.2,0.6-0.2,0.9H69.7z"/>
		<path class="st0" d="M75.7,47c-0.4,0-0.7-0.1-1-0.2c-0.3-0.1-0.6-0.3-0.8-0.5c-0.2-0.2-0.4-0.5-0.5-0.8c-0.1-0.3-0.2-0.6-0.2-0.9
			c0-0.4,0.1-0.7,0.2-1c0.2-0.3,0.4-0.5,0.7-0.8s0.6-0.4,1-0.5c0.4-0.1,0.8-0.2,1.3-0.2c0.4,0,0.7,0,1.1,0.1
			c0.3,0.1,0.7,0.1,0.9,0.3V42c0-0.6-0.2-1-0.5-1.3c-0.3-0.3-0.8-0.5-1.4-0.5c-0.4,0-0.8,0.1-1.2,0.2c-0.4,0.2-0.8,0.4-1.2,0.6
			l-0.5-1c1-0.7,2-1,3.1-1c1,0,1.9,0.3,2.4,0.8c0.6,0.5,0.9,1.3,0.9,2.3v2.7c0,0.3,0.1,0.5,0.4,0.5v1.4c-0.2,0-0.3,0-0.4,0.1
			c-0.1,0-0.2,0-0.3,0c-0.3,0-0.6-0.1-0.7-0.2c-0.2-0.2-0.3-0.4-0.3-0.6l0-0.5c-0.3,0.4-0.8,0.8-1.3,1C76.8,46.9,76.3,47,75.7,47z
			 M76.2,45.8c0.4,0,0.8-0.1,1.1-0.2c0.3-0.1,0.6-0.3,0.8-0.6c0.2-0.2,0.3-0.4,0.3-0.6v-1c-0.3-0.1-0.6-0.2-0.9-0.2
			c-0.3-0.1-0.6-0.1-0.9-0.1c-0.6,0-1,0.1-1.4,0.4c-0.4,0.2-0.5,0.6-0.5,1c0,0.4,0.1,0.7,0.4,1C75.4,45.7,75.7,45.8,76.2,45.8z"/>
		<path class="st0" d="M83,36.2h1.6v8.4c0,0.3,0.1,0.5,0.2,0.7c0.1,0.2,0.3,0.2,0.6,0.2c0.1,0,0.2,0,0.4-0.1c0.1,0,0.3-0.1,0.4-0.1
			l0.2,1.3c-0.2,0.1-0.5,0.2-0.8,0.3C85.3,46.9,85,47,84.8,47c-0.6,0-1-0.2-1.3-0.5c-0.3-0.3-0.5-0.7-0.5-1.3V36.2z"/>
		<path class="st0" d="M95.8,45.4v1.4h-7.1V36.5h7V38h-5.3v2.9h4.6v1.4h-4.6v3.2H95.8z"/>
		<path class="st0" d="M101,47c-0.6,0-1.2-0.1-1.8-0.3c-0.6-0.2-1.1-0.5-1.6-0.9l0.6-1c0.5,0.3,0.9,0.6,1.4,0.7
			c0.4,0.2,0.9,0.3,1.4,0.3c0.5,0,0.9-0.1,1.1-0.3c0.3-0.2,0.4-0.4,0.4-0.8c0-0.3-0.2-0.6-0.5-0.7c-0.3-0.1-0.8-0.3-1.5-0.5
			c-0.5-0.1-0.9-0.2-1.2-0.4c-0.3-0.1-0.6-0.3-0.8-0.4c-0.2-0.2-0.4-0.3-0.5-0.5c-0.1-0.2-0.1-0.5-0.1-0.7c0-0.4,0.1-0.7,0.2-1
			c0.1-0.3,0.4-0.6,0.6-0.8c0.3-0.2,0.6-0.4,0.9-0.5c0.4-0.1,0.7-0.2,1.2-0.2c0.6,0,1.1,0.1,1.6,0.3c0.5,0.2,0.9,0.4,1.3,0.8l-0.7,1
			c-0.7-0.6-1.5-0.8-2.3-0.8c-0.4,0-0.7,0.1-1,0.3c-0.3,0.2-0.4,0.4-0.4,0.8c0,0.2,0,0.3,0.1,0.4c0.1,0.1,0.2,0.2,0.3,0.3
			c0.1,0.1,0.3,0.1,0.5,0.2c0.2,0.1,0.5,0.1,0.8,0.2c0.5,0.1,1,0.3,1.3,0.4c0.4,0.1,0.7,0.3,0.9,0.4c0.2,0.2,0.4,0.4,0.5,0.6
			c0.1,0.2,0.2,0.5,0.2,0.8c0,0.7-0.3,1.3-0.8,1.7C102.7,46.8,101.9,47,101,47z"/>
		<path class="st0" d="M110.8,46.4c-0.2,0.1-0.5,0.2-0.8,0.3c-0.4,0.1-0.7,0.2-1.1,0.2c-0.3,0-0.5,0-0.7-0.1s-0.4-0.2-0.6-0.3
			c-0.2-0.1-0.3-0.3-0.4-0.5c-0.1-0.2-0.1-0.5-0.1-0.8v-4.8h-1v-1.2h1v-2.5h1.6v2.5h1.7v1.2h-1.7v4.2c0,0.3,0.1,0.5,0.3,0.6
			c0.1,0.1,0.3,0.2,0.6,0.2c0.2,0,0.4,0,0.6-0.1c0.2-0.1,0.4-0.1,0.5-0.2L110.8,46.4z"/>
		<path class="st0" d="M115,47c-0.4,0-0.7-0.1-1-0.2c-0.3-0.1-0.6-0.3-0.8-0.5c-0.2-0.2-0.4-0.5-0.5-0.8c-0.1-0.3-0.2-0.6-0.2-0.9
			c0-0.4,0.1-0.7,0.2-1c0.2-0.3,0.4-0.5,0.7-0.8s0.6-0.4,1-0.5c0.4-0.1,0.8-0.2,1.3-0.2c0.4,0,0.7,0,1.1,0.1
			c0.3,0.1,0.7,0.1,0.9,0.3V42c0-0.6-0.2-1-0.5-1.3c-0.3-0.3-0.8-0.5-1.4-0.5c-0.4,0-0.8,0.1-1.2,0.2c-0.4,0.2-0.8,0.4-1.2,0.6
			l-0.5-1c1-0.7,2-1,3.1-1c1,0,1.9,0.3,2.4,0.8c0.6,0.5,0.9,1.3,0.9,2.3v2.7c0,0.3,0.1,0.5,0.4,0.5v1.4c-0.2,0-0.3,0-0.4,0.1
			c-0.1,0-0.2,0-0.3,0c-0.3,0-0.6-0.1-0.7-0.2c-0.2-0.2-0.3-0.4-0.3-0.6l0-0.5c-0.3,0.4-0.8,0.8-1.3,1C116.1,46.9,115.6,47,115,47z
			 M115.4,45.8c0.4,0,0.8-0.1,1.1-0.2c0.3-0.1,0.6-0.3,0.8-0.6c0.2-0.2,0.3-0.4,0.3-0.6v-1c-0.3-0.1-0.6-0.2-0.9-0.2
			c-0.3-0.1-0.6-0.1-0.9-0.1c-0.6,0-1,0.1-1.4,0.4c-0.4,0.2-0.5,0.6-0.5,1c0,0.4,0.1,0.7,0.4,1C114.6,45.7,115,45.8,115.4,45.8z"/>
		<path class="st0" d="M126.4,46.4c-0.2,0.1-0.5,0.2-0.8,0.3c-0.4,0.1-0.7,0.2-1.1,0.2c-0.3,0-0.5,0-0.7-0.1s-0.4-0.2-0.6-0.3
			c-0.2-0.1-0.3-0.3-0.4-0.5c-0.1-0.2-0.1-0.5-0.1-0.8v-4.8h-1v-1.2h1v-2.5h1.6v2.5h1.7v1.2h-1.7v4.2c0,0.3,0.1,0.5,0.3,0.6
			c0.1,0.1,0.3,0.2,0.6,0.2c0.2,0,0.4,0,0.6-0.1c0.2-0.1,0.4-0.1,0.5-0.2L126.4,46.4z"/>
		<path class="st0" d="M131.9,47c-0.6,0-1.1-0.1-1.6-0.3c-0.5-0.2-0.9-0.5-1.2-0.9c-0.3-0.4-0.6-0.8-0.8-1.2c-0.2-0.5-0.3-1-0.3-1.5
			c0-0.5,0.1-1,0.3-1.5c0.2-0.5,0.5-0.9,0.8-1.3c0.3-0.4,0.8-0.6,1.2-0.9c0.5-0.2,1-0.3,1.6-0.3c0.6,0,1.1,0.1,1.6,0.3
			c0.5,0.2,0.9,0.5,1.2,0.9c0.3,0.4,0.6,0.8,0.8,1.2c0.2,0.5,0.3,1,0.3,1.5c0,0.1,0,0.2,0,0.3c0,0.1,0,0.2,0,0.3h-6.1
			c0,0.3,0.1,0.6,0.2,0.9s0.3,0.5,0.5,0.7c0.2,0.2,0.4,0.4,0.7,0.5c0.3,0.1,0.5,0.2,0.8,0.2c0.2,0,0.4,0,0.6-0.1
			c0.2-0.1,0.4-0.1,0.6-0.2c0.2-0.1,0.3-0.2,0.5-0.4c0.1-0.1,0.2-0.3,0.3-0.5l1.4,0.4c-0.3,0.6-0.7,1-1.3,1.4
			C133.4,46.8,132.7,47,131.9,47z M134.2,42.5c0-0.3-0.1-0.6-0.2-0.9c-0.1-0.3-0.3-0.5-0.5-0.7c-0.2-0.2-0.4-0.3-0.7-0.4
			c-0.3-0.1-0.6-0.2-0.9-0.2c-0.3,0-0.6,0.1-0.9,0.2c-0.3,0.1-0.5,0.3-0.7,0.4c-0.2,0.2-0.4,0.4-0.5,0.7c-0.1,0.3-0.2,0.6-0.2,0.9
			H134.2z"/>
		<path class="st0" d="M142.4,41.6c0-0.6,0.1-1.2,0.3-1.9s0.6-1.2,1-1.7c0.4-0.5,1-0.9,1.6-1.2c0.6-0.3,1.3-0.5,2.1-0.5
			c0.9,0,1.7,0.2,2.4,0.6c0.7,0.4,1.2,1,1.5,1.6l-1.3,0.9c-0.1-0.3-0.3-0.6-0.5-0.8c-0.2-0.2-0.4-0.4-0.7-0.5
			c-0.2-0.1-0.5-0.2-0.8-0.3c-0.3-0.1-0.5-0.1-0.8-0.1c-0.5,0-1,0.1-1.4,0.3c-0.4,0.2-0.7,0.5-1,0.9s-0.5,0.8-0.6,1.2
			c-0.1,0.4-0.2,0.9-0.2,1.3c0,0.5,0.1,1,0.2,1.4c0.2,0.5,0.4,0.9,0.7,1.2c0.3,0.3,0.6,0.6,1.1,0.8c0.4,0.2,0.9,0.3,1.3,0.3
			c0.3,0,0.5,0,0.8-0.1c0.3-0.1,0.5-0.2,0.8-0.3c0.2-0.1,0.5-0.3,0.7-0.5c0.2-0.2,0.4-0.5,0.5-0.8l1.4,0.8c-0.2,0.4-0.4,0.7-0.7,1
			c-0.3,0.3-0.6,0.5-1,0.7c-0.4,0.2-0.8,0.4-1.2,0.5c-0.4,0.1-0.8,0.2-1.2,0.2c-0.7,0-1.4-0.2-2-0.5c-0.6-0.3-1.1-0.7-1.6-1.2
			c-0.4-0.5-0.8-1.1-1-1.7C142.5,42.9,142.4,42.3,142.4,41.6z"/>
		<path class="st0" d="M157.3,47c-0.6,0-1.1-0.1-1.6-0.3c-0.5-0.2-0.9-0.5-1.2-0.9c-0.3-0.4-0.6-0.8-0.8-1.3c-0.2-0.5-0.3-1-0.3-1.5
			s0.1-1,0.3-1.5c0.2-0.5,0.4-0.9,0.8-1.3c0.3-0.4,0.8-0.6,1.2-0.9c0.5-0.2,1-0.3,1.6-0.3s1.1,0.1,1.6,0.3c0.5,0.2,0.9,0.5,1.2,0.9
			c0.3,0.4,0.6,0.8,0.8,1.3c0.2,0.5,0.3,1,0.3,1.5s-0.1,1-0.3,1.5c-0.2,0.5-0.4,0.9-0.8,1.3s-0.8,0.6-1.2,0.9
			C158.4,46.9,157.9,47,157.3,47z M155.1,43.1c0,0.4,0.1,0.7,0.2,1c0.1,0.3,0.3,0.6,0.5,0.8c0.2,0.2,0.4,0.4,0.7,0.5
			c0.3,0.1,0.6,0.2,0.9,0.2c0.3,0,0.6-0.1,0.9-0.2c0.3-0.1,0.5-0.3,0.7-0.5c0.2-0.2,0.4-0.5,0.5-0.8c0.1-0.3,0.2-0.6,0.2-1
			c0-0.4-0.1-0.7-0.2-1c-0.1-0.3-0.3-0.6-0.5-0.8c-0.2-0.2-0.4-0.4-0.7-0.5c-0.3-0.1-0.6-0.2-0.9-0.2c-0.3,0-0.6,0.1-0.9,0.2
			c-0.3,0.1-0.5,0.3-0.7,0.6c-0.2,0.2-0.4,0.5-0.5,0.8C155.1,42.4,155.1,42.7,155.1,43.1z"/>
		<path class="st0" d="M163.7,46.8V45h1.3v1.9H163.7z"/>
	</g>
	<g>
		<polygon class="st0" points="45.7,32.9 22.9,21.7 22.9,16.3 45.7,27.5 		"/>
		<polygon class="st0" points="0,32.9 22.9,21.7 22.9,16.3 0,27.5 		"/>
		<polygon class="st1" points="45.7,40.2 22.9,29 22.9,23.6 45.7,34.8 		"/>
		<polygon class="st0" points="45.7,47.5 22.9,36.3 22.9,30.9 45.7,42.1 		"/>
		<g>
			<polygon class="st1" points="22.9,14.3 22.9,14.5 28.1,17.1 45.7,8.4 45.7,3 			"/>
			<g>
				<polygon class="st1" points="37.5,21.7 42.9,24.4 45.7,23 45.7,17.6 				"/>
			</g>
			<g>
				<polygon class="st1" points="30,18 35.5,20.7 45.7,15.7 45.7,10.3 				"/>
			</g>
		</g>
		<polygon class="st0" points="13.1,17.1 8,14.5 8,23.8 13.1,26.3 		"/>
		<polygon class="st0" points="0,34.7 0,45 5.1,47.5 5.1,32.2 		"/>
	</g>
</g>
</svg>
