<?xml version="1.0" encoding="utf-8"?>
<!-- Generator: Adobe Illustrator 21.0.2, SVG Export Plug-In . SVG Version: 6.00 Build 0)  -->
<svg version="1.1" id="Layer_1" xmlns="http://www.w3.org/2000/svg" xmlns:xlink="http://www.w3.org/1999/xlink" x="0px" y="0px"
	 viewBox="0 0 100 100" style="enable-background:new 0 0 100 100;" xml:space="preserve">
<style type="text/css">
	.st0{fill:#FFFFFF;}
	.st1{fill:#00C0FF;}
	.st2{fill:#222222;}
</style>
<g>
	<g>
		<g>
			<path class="st2" d="M4.6,81.8V60.3h9.2c1,0,1.8,0.2,2.6,0.6c0.8,0.4,1.5,0.9,2.1,1.6c0.6,0.7,1,1.4,1.4,2.2
				c0.3,0.8,0.5,1.7,0.5,2.6c0,0.7-0.1,1.4-0.3,2.1c-0.2,0.7-0.5,1.3-0.8,1.8c-0.4,0.6-0.8,1.1-1.3,1.5c-0.5,0.4-1.1,0.7-1.7,0.9
				l5,8.2h-3.8l-4.6-7.5H7.9v7.5H4.6z M7.9,71.3h5.9c0.5,0,0.9-0.1,1.3-0.3c0.4-0.2,0.7-0.5,1-0.9c0.3-0.4,0.5-0.8,0.7-1.3
				s0.2-1,0.2-1.5s-0.1-1.1-0.3-1.5c-0.2-0.5-0.4-0.9-0.7-1.3c-0.3-0.4-0.7-0.7-1.1-0.9c-0.4-0.2-0.8-0.3-1.3-0.3H7.9V71.3z"/>
			<path class="st2" d="M38.9,78.8v3H24.3V60.3h14.3v3H27.7v6.1h9.5v2.8h-9.5v6.6H38.9z"/>
			<path class="st2" d="M43.7,60.3l6.4,17.2l6.4-17.2H60l-8.5,21.5h-2.9l-8.5-21.5H43.7z"/>
			<path class="st2" d="M77.2,78.8v3H62.6V60.3h14.3v3H66v6.1h9.5v2.8H66v6.6H77.2z"/>
			<path class="st2" d="M80.7,81.8V60.3H84v18.5h11.4v3H80.7z"/>
		</g>
	</g>
	<g>
		<g>
			<path class="st2" d="M4.6,98.2v-9h3.7c0.4,0,0.7,0.1,1,0.3c0.3,0.2,0.6,0.4,0.8,0.7c0.2,0.3,0.4,0.6,0.5,0.9s0.2,0.7,0.2,1.1
				c0,0.3,0,0.6-0.1,0.9c-0.1,0.3-0.2,0.5-0.3,0.8c-0.1,0.2-0.3,0.4-0.5,0.6c-0.2,0.2-0.4,0.3-0.7,0.4l2,3.4H9.7l-1.8-3.1H5.9v3.1
				H4.6z M5.9,93.8h2.3c0.2,0,0.4,0,0.5-0.1c0.2-0.1,0.3-0.2,0.4-0.4c0.1-0.2,0.2-0.3,0.3-0.5s0.1-0.4,0.1-0.6c0-0.2,0-0.4-0.1-0.6
				S9.2,91.1,9.1,91c-0.1-0.2-0.3-0.3-0.4-0.4c-0.2-0.1-0.3-0.1-0.5-0.1H5.9V93.8z"/>
			<path class="st2" d="M15.8,98.3c-0.5,0-0.9-0.1-1.3-0.3c-0.4-0.2-0.7-0.4-1-0.7c-0.3-0.3-0.5-0.7-0.7-1.1
				c-0.2-0.4-0.2-0.8-0.2-1.3c0-0.5,0.1-0.9,0.2-1.3c0.2-0.4,0.4-0.8,0.7-1.1c0.3-0.3,0.6-0.6,1-0.7c0.4-0.2,0.8-0.3,1.3-0.3
				c0.5,0,0.9,0.1,1.3,0.3c0.4,0.2,0.7,0.4,1,0.7c0.3,0.3,0.5,0.7,0.6,1.1c0.1,0.4,0.2,0.8,0.2,1.3c0,0.1,0,0.2,0,0.3
				c0,0.1,0,0.2,0,0.2h-5c0,0.3,0.1,0.6,0.2,0.8c0.1,0.2,0.2,0.4,0.4,0.6c0.2,0.2,0.4,0.3,0.6,0.4c0.2,0.1,0.4,0.1,0.7,0.1
				c0.2,0,0.3,0,0.5-0.1c0.2,0,0.3-0.1,0.5-0.2c0.1-0.1,0.3-0.2,0.4-0.3c0.1-0.1,0.2-0.3,0.3-0.4l1.1,0.3c-0.2,0.5-0.6,0.9-1.1,1.2
				C17,98.2,16.5,98.3,15.8,98.3z M17.7,94.4c0-0.3-0.1-0.5-0.2-0.8c-0.1-0.2-0.2-0.4-0.4-0.6c-0.2-0.2-0.4-0.3-0.6-0.4
				c-0.2-0.1-0.5-0.1-0.7-0.1c-0.2,0-0.5,0-0.7,0.1c-0.2,0.1-0.4,0.2-0.6,0.4c-0.2,0.2-0.3,0.4-0.4,0.6c-0.1,0.2-0.2,0.5-0.2,0.8
				H17.7z"/>
			<path class="st2" d="M22.6,98.3c-0.3,0-0.6-0.1-0.8-0.2c-0.3-0.1-0.5-0.3-0.7-0.4c-0.2-0.2-0.3-0.4-0.4-0.7s-0.2-0.5-0.2-0.8
				c0-0.3,0.1-0.6,0.2-0.8c0.1-0.3,0.3-0.5,0.5-0.7c0.2-0.2,0.5-0.3,0.8-0.4c0.3-0.1,0.7-0.2,1.1-0.2c0.3,0,0.6,0,0.9,0.1
				c0.3,0.1,0.5,0.1,0.8,0.2V94c0-0.5-0.1-0.9-0.4-1.1c-0.3-0.3-0.6-0.4-1.1-0.4c-0.3,0-0.7,0.1-1,0.2c-0.3,0.1-0.7,0.3-1,0.6
				l-0.4-0.9c0.8-0.6,1.6-0.9,2.5-0.9c0.9,0,1.5,0.2,2,0.7c0.5,0.5,0.7,1.1,0.7,2v2.4c0,0.3,0.1,0.4,0.3,0.5v1.2
				c-0.1,0-0.2,0-0.3,0.1c-0.1,0-0.2,0-0.3,0c-0.3,0-0.4-0.1-0.6-0.2c-0.1-0.1-0.2-0.3-0.3-0.5l0-0.4c-0.3,0.4-0.6,0.7-1,0.9
				C23.5,98.2,23,98.3,22.6,98.3z M22.9,97.3c0.3,0,0.6-0.1,0.9-0.2c0.3-0.1,0.5-0.3,0.7-0.5c0.2-0.2,0.2-0.3,0.2-0.5v-0.9
				c-0.2-0.1-0.5-0.2-0.7-0.2C23.8,95,23.5,95,23.3,95c-0.5,0-0.8,0.1-1.1,0.3c-0.3,0.2-0.4,0.5-0.4,0.9c0,0.3,0.1,0.6,0.3,0.8
				C22.3,97.2,22.6,97.3,22.9,97.3z"/>
			<path class="st2" d="M28.5,89h1.3v7.3c0,0.2,0.1,0.4,0.2,0.6c0.1,0.1,0.3,0.2,0.5,0.2c0.1,0,0.2,0,0.3-0.1s0.2-0.1,0.3-0.1
				l0.2,1.1c-0.2,0.1-0.4,0.2-0.7,0.2c-0.3,0.1-0.5,0.1-0.7,0.1c-0.5,0-0.8-0.1-1-0.4c-0.2-0.3-0.4-0.6-0.4-1.1V89z"/>
			<path class="st2" d="M38.9,96.9v1.2h-5.8v-9h5.7v1.2h-4.3V93h3.8v1.2h-3.8v2.7H38.9z"/>
			<path class="st2" d="M43.2,98.3c-0.5,0-1-0.1-1.5-0.3c-0.5-0.2-0.9-0.4-1.3-0.7l0.5-0.9c0.4,0.3,0.7,0.5,1.1,0.6
				c0.4,0.1,0.7,0.2,1.1,0.2c0.4,0,0.7-0.1,0.9-0.2c0.2-0.2,0.3-0.4,0.3-0.7c0-0.3-0.1-0.5-0.4-0.6c-0.3-0.1-0.6-0.3-1.2-0.4
				c-0.4-0.1-0.7-0.2-1-0.3c-0.3-0.1-0.5-0.2-0.7-0.4c-0.2-0.1-0.3-0.3-0.4-0.5c-0.1-0.2-0.1-0.4-0.1-0.6c0-0.3,0.1-0.6,0.2-0.9
				c0.1-0.3,0.3-0.5,0.5-0.7c0.2-0.2,0.5-0.3,0.8-0.4c0.3-0.1,0.6-0.1,0.9-0.1c0.5,0,0.9,0.1,1.3,0.2c0.4,0.2,0.8,0.4,1.1,0.7
				l-0.6,0.8c-0.6-0.5-1.2-0.7-1.8-0.7c-0.3,0-0.6,0.1-0.8,0.2c-0.2,0.1-0.3,0.4-0.3,0.7c0,0.1,0,0.2,0.1,0.3c0,0.1,0.1,0.2,0.2,0.2
				c0.1,0.1,0.2,0.1,0.4,0.2c0.2,0.1,0.4,0.1,0.6,0.2c0.4,0.1,0.8,0.2,1.1,0.3c0.3,0.1,0.6,0.2,0.8,0.4c0.2,0.1,0.3,0.3,0.4,0.5
				c0.1,0.2,0.1,0.4,0.1,0.7c0,0.6-0.2,1.1-0.7,1.5C44.6,98.1,44,98.3,43.2,98.3z"/>
			<path class="st2" d="M51.2,97.8c-0.2,0.1-0.4,0.2-0.7,0.3c-0.3,0.1-0.6,0.2-0.9,0.2c-0.2,0-0.4,0-0.6-0.1
				c-0.2-0.1-0.3-0.1-0.5-0.3c-0.1-0.1-0.2-0.3-0.3-0.5c-0.1-0.2-0.1-0.4-0.1-0.7v-4.1h-0.8v-1.1H48v-2.2h1.3v2.2h1.4v1.1h-1.4v3.7
				c0,0.2,0.1,0.4,0.2,0.5C49.7,97,49.8,97,50,97c0.2,0,0.4,0,0.5-0.1c0.2-0.1,0.3-0.1,0.4-0.2L51.2,97.8z"/>
			<path class="st2" d="M54.6,98.3c-0.3,0-0.6-0.1-0.8-0.2c-0.3-0.1-0.5-0.3-0.7-0.4c-0.2-0.2-0.3-0.4-0.4-0.7
				c-0.1-0.3-0.2-0.5-0.2-0.8c0-0.3,0.1-0.6,0.2-0.8c0.1-0.3,0.3-0.5,0.5-0.7c0.2-0.2,0.5-0.3,0.8-0.4c0.3-0.1,0.7-0.2,1.1-0.2
				c0.3,0,0.6,0,0.9,0.1c0.3,0.1,0.5,0.1,0.8,0.2V94c0-0.5-0.1-0.9-0.4-1.1c-0.3-0.3-0.6-0.4-1.1-0.4c-0.3,0-0.7,0.1-1,0.2
				c-0.3,0.1-0.7,0.3-1,0.6l-0.4-0.9c0.8-0.6,1.6-0.9,2.5-0.9c0.9,0,1.5,0.2,2,0.7c0.5,0.5,0.7,1.1,0.7,2v2.4c0,0.3,0.1,0.4,0.3,0.5
				v1.2c-0.1,0-0.2,0-0.3,0.1c-0.1,0-0.2,0-0.3,0c-0.3,0-0.4-0.1-0.6-0.2c-0.1-0.1-0.2-0.3-0.3-0.5l0-0.4c-0.3,0.4-0.6,0.7-1,0.9
				S55.1,98.3,54.6,98.3z M55,97.3c0.3,0,0.6-0.1,0.9-0.2c0.3-0.1,0.5-0.3,0.7-0.5c0.2-0.2,0.2-0.3,0.2-0.5v-0.9
				c-0.2-0.1-0.5-0.2-0.7-0.2C55.8,95,55.6,95,55.3,95c-0.5,0-0.8,0.1-1.1,0.3c-0.3,0.2-0.4,0.5-0.4,0.9c0,0.3,0.1,0.6,0.3,0.8
				C54.3,97.2,54.6,97.3,55,97.3z"/>
			<path class="st2" d="M63.9,97.8c-0.2,0.1-0.4,0.2-0.7,0.3c-0.3,0.1-0.6,0.2-0.9,0.2c-0.2,0-0.4,0-0.6-0.1
				c-0.2-0.1-0.3-0.1-0.5-0.3c-0.1-0.1-0.2-0.3-0.3-0.5c-0.1-0.2-0.1-0.4-0.1-0.7v-4.1H60v-1.1h0.8v-2.2h1.3v2.2h1.4v1.1h-1.4v3.7
				c0,0.2,0.1,0.4,0.2,0.5c0.1,0.1,0.3,0.2,0.5,0.2c0.2,0,0.4,0,0.5-0.1c0.2-0.1,0.3-0.1,0.4-0.2L63.9,97.8z"/>
			<path class="st2" d="M68.4,98.3c-0.5,0-0.9-0.1-1.3-0.3c-0.4-0.2-0.7-0.4-1-0.7c-0.3-0.3-0.5-0.7-0.7-1.1
				c-0.2-0.4-0.2-0.8-0.2-1.3c0-0.5,0.1-0.9,0.2-1.3c0.2-0.4,0.4-0.8,0.7-1.1c0.3-0.3,0.6-0.6,1-0.7c0.4-0.2,0.8-0.3,1.3-0.3
				c0.5,0,0.9,0.1,1.3,0.3c0.4,0.2,0.7,0.4,1,0.7c0.3,0.3,0.5,0.7,0.6,1.1c0.1,0.4,0.2,0.8,0.2,1.3c0,0.1,0,0.2,0,0.3
				c0,0.1,0,0.2,0,0.2h-5c0,0.3,0.1,0.6,0.2,0.8c0.1,0.2,0.2,0.4,0.4,0.6c0.2,0.2,0.4,0.3,0.6,0.4c0.2,0.1,0.4,0.1,0.7,0.1
				c0.2,0,0.3,0,0.5-0.1c0.2,0,0.3-0.1,0.5-0.2c0.1-0.1,0.3-0.2,0.4-0.3c0.1-0.1,0.2-0.3,0.3-0.4l1.1,0.3c-0.2,0.5-0.6,0.9-1.1,1.2
				C69.6,98.2,69.1,98.3,68.4,98.3z M70.3,94.4c0-0.3-0.1-0.5-0.2-0.8c-0.1-0.2-0.2-0.4-0.4-0.6c-0.2-0.2-0.4-0.3-0.6-0.4
				c-0.2-0.1-0.5-0.1-0.7-0.1c-0.2,0-0.5,0-0.7,0.1c-0.2,0.1-0.4,0.2-0.6,0.4c-0.2,0.2-0.3,0.4-0.4,0.6c-0.1,0.2-0.2,0.5-0.2,0.8
				H70.3z"/>
			<path class="st2" d="M77,93.6c0-0.5,0.1-1.1,0.3-1.6s0.4-1,0.8-1.4c0.4-0.4,0.8-0.8,1.3-1c0.5-0.3,1.1-0.4,1.7-0.4
				c0.8,0,1.4,0.2,2,0.5c0.5,0.4,1,0.8,1.2,1.4l-1,0.7c-0.1-0.3-0.3-0.5-0.4-0.7c-0.2-0.2-0.3-0.3-0.5-0.4c-0.2-0.1-0.4-0.2-0.6-0.2
				c-0.2,0-0.4-0.1-0.6-0.1c-0.4,0-0.8,0.1-1.2,0.3c-0.3,0.2-0.6,0.4-0.8,0.7c-0.2,0.3-0.4,0.7-0.5,1c-0.1,0.4-0.2,0.8-0.2,1.2
				c0,0.4,0.1,0.9,0.2,1.2c0.1,0.4,0.3,0.7,0.6,1c0.2,0.3,0.5,0.5,0.9,0.7c0.3,0.2,0.7,0.3,1.1,0.3c0.2,0,0.4,0,0.6-0.1
				c0.2-0.1,0.4-0.1,0.6-0.3c0.2-0.1,0.4-0.3,0.6-0.5c0.2-0.2,0.3-0.4,0.4-0.7l1.1,0.7c-0.1,0.3-0.3,0.6-0.6,0.9
				c-0.2,0.3-0.5,0.5-0.8,0.6c-0.3,0.2-0.6,0.3-1,0.4s-0.7,0.1-1,0.1c-0.6,0-1.1-0.1-1.6-0.4c-0.5-0.3-0.9-0.6-1.3-1.1
				c-0.4-0.4-0.6-0.9-0.8-1.5C77.1,94.8,77,94.2,77,93.6z"/>
			<path class="st2" d="M89.1,98.3c-0.5,0-0.9-0.1-1.3-0.3c-0.4-0.2-0.7-0.4-1-0.7c-0.3-0.3-0.5-0.7-0.6-1.1
				C86,95.8,86,95.4,86,94.9c0-0.5,0.1-0.9,0.2-1.3c0.2-0.4,0.4-0.8,0.6-1.1c0.3-0.3,0.6-0.6,1-0.7c0.4-0.2,0.8-0.3,1.3-0.3
				s0.9,0.1,1.3,0.3c0.4,0.2,0.7,0.4,1,0.7c0.3,0.3,0.5,0.7,0.6,1.1c0.1,0.4,0.2,0.9,0.2,1.3c0,0.5-0.1,0.9-0.2,1.3
				c-0.2,0.4-0.4,0.8-0.6,1.1c-0.3,0.3-0.6,0.6-1,0.7C90.1,98.2,89.6,98.3,89.1,98.3z M87.3,94.9c0,0.3,0,0.6,0.1,0.9
				c0.1,0.3,0.2,0.5,0.4,0.7c0.2,0.2,0.4,0.4,0.6,0.5c0.2,0.1,0.5,0.2,0.7,0.2c0.3,0,0.5-0.1,0.7-0.2c0.2-0.1,0.4-0.3,0.6-0.5
				c0.2-0.2,0.3-0.4,0.4-0.7c0.1-0.3,0.1-0.6,0.1-0.9c0-0.3,0-0.6-0.1-0.9c-0.1-0.3-0.2-0.5-0.4-0.7c-0.2-0.2-0.4-0.4-0.6-0.5
				c-0.2-0.1-0.5-0.2-0.7-0.2c-0.3,0-0.5,0.1-0.7,0.2c-0.2,0.1-0.4,0.3-0.6,0.5c-0.2,0.2-0.3,0.4-0.4,0.7
				C87.3,94.3,87.3,94.6,87.3,94.9z"/>
			<path class="st2" d="M94.3,98.2v-1.6h1.1v1.6H94.3z"/>
		</g>
	</g>
	<polygon class="st2" points="75.6,35.8 50,22.5 50,16.1 75.6,29.4 	"/>
	<polygon class="st2" points="24.4,35.8 50,22.5 50,16.1 24.4,29.4 	"/>
	<polygon class="st0" points="75.6,44.5 50,31.2 50,24.8 75.6,38.1 	"/>
	<polygon class="st2" points="75.6,53.1 50,39.8 50,33.4 75.6,46.8 	"/>
	<g>
		<polygon class="st0" points="50,13.6 50,14 55.8,17 75.6,6.7 75.6,0.3 		"/>
		<g>
			<polygon class="st0" points="66.3,22.5 72.5,25.7 75.6,24.1 75.6,17.7 			"/>
		</g>
		<g>
			<polygon class="st0" points="58,18.1 64.1,21.3 75.6,15.4 75.6,9 			"/>
		</g>
	</g>
	<polygon class="st2" points="39.1,17 33.4,14 33.4,25 39.1,28 	"/>
	<polygon class="st2" points="24.4,38 24.4,50.2 30.2,53.2 30.2,35 	"/>
</g>
</svg>
